{"title":"Dr Strangelove[1964]BRrip[Ac3-5.1]-=[CaLvIn]=-","uid":7149793,"size":749113240,"categoryP":"video","categoryS":"movies","magnet":"?xt=urn:btih:fd86e9170917a3e7e38e15528dd04c90cc16ee5b&amp;dn=Dr+Strangelove%5B1964%5DBRrip%5BAc3-5.1%5D-%3D%5BCaLvIn%5D%3D-&amp;tr=udp%3A%2F%2Ftracker.openbittorrent.com%3A80&amp;tr=udp%3A%2F%2Fopen.demonii.com%3A1337&amp;tr=udp%3A%2F%2Ftracker.coppersurfer.tk%3A6969&amp;tr=udp%3A%2F%2Fexodus.desync.com%3A6969","seeders":0,"leechers":1,"uploader":"rhythmtheguru","files":15,"time":1333275724,"description":"General\n\nName                             : Dr Strangelove[1964]BRrip[Ac3-5.1]-=[CaLvIn]=-\nImdb Link                        : http://www.imdb.com/title/tt0057012\nFormat                           : AVI\nFormat/Info                      : Audio Video Interleave\nFile size                        : 699 MiB\nDuration                         : 1h 34mn\nOverall bit rate                 : 1 031 Kbps\nWriting application              : VirtualDubMod 1.5.10.3 | www.virtualdub-fr.org || (build 2550/release)\nWriting library                  : VirtualDubMod build 2550/release\n\nVideo\nID                               : 0\nFormat                           : MPEG-4 Visual\nFormat profile                   : Advanced Simple@L5\nFormat settings, BVOP            : 2\nFormat settings, QPel            : No\nFormat settings, GMC             : No warppoints\nFormat settings, Matrix          : Default (H.263)\nCodec ID                         : XVID\nCodec ID/Hint                    : XviD\nDuration                         : 1h 34mn\nBit rate                         : 830 Kbps\nWidth                            : 720 pixels\nHeight                           : 432 pixels\nDisplay aspect ratio             : 16:9\nFrame rate                       : 23.976 fps\nColor space                      : YUV\nChroma subsampling               : 4:2:0\nBit depth                        : 8 bits\nScan type                        : Progressive\nCompression mode                 : Lossy\nBits/(Pixel*Frame)               : 0.111\nStream size                      : 562 MiB (80%)\nWriting library                  : XviD 1.2.1 (UTC 2008-12-04)\n\nAudio\nID                               : 1\nFormat                           : AC-3\nFormat/Info                      : Audio Coding 3\nMode extension                   : CM (complete main)\nCodec ID                         : 2000\nDuration                         : 1h 34mn\nBit rate mode                    : Constant\nBit rate                         : 192 Kbps\nChannel(s)                       : 6 channels\nChannel positions                : Front: L C R, Side: L R, LFE\nSampling rate                    : 48.0 KHz\nBit depth                        : 16 bits\nCompression mode                 : Lossy\nStream size                      : 130 MiB (19%)\nAlignment                        : Split accross interleaves\nInterleave, duration             : 42 ms (1.00 video frame)\nInterleave, preload duration     : 500 ms\n\nScreens :-\n &lt;a href=&quot;\nhttp://img826.imageshack.us/img826/8459/10851261.png&quot; rel=&quot;nofollow&quot; target=&quot;_NEW&quot;&gt;\nhttp://img826.imageshack.us/img826/8459/10851261.png&lt;/a&gt; &lt;a href=&quot;\nhttp://img706.imageshack.us/img706/6359/50568930.png&quot; rel=&quot;nofollow&quot; target=&quot;_NEW&quot;&gt;\nhttp://img706.imageshack.us/img706/6359/50568930.png&lt;/a&gt; &lt;a href=&quot;\nhttp://img100.imageshack.us/img100/5055/17808690.png&quot; rel=&quot;nofollow&quot; target=&quot;_NEW&quot;&gt;\nhttp://img100.imageshack.us/img100/5055/17808690.png&lt;/a&gt; &lt;a href=&quot;\nhttp://img707.imageshack.us/img707/9234/66903022.png&quot; rel=&quot;nofollow&quot; target=&quot;_NEW&quot;&gt;\nhttp://img707.imageshack.us/img707/9234/66903022.png&lt;/a&gt; &lt;a href=&quot;\nhttp://img254.imageshack.us/img254/2842/97247518.png&quot; rel=&quot;nofollow&quot; target=&quot;_NEW&quot;&gt;\nhttp://img254.imageshack.us/img254/2842/97247518.png&lt;/a&gt; &lt;a href=&quot;\nhttp://img856.imageshack.us/img856/3179/77511393.png&quot; rel=&quot;nofollow&quot; target=&quot;_NEW&quot;&gt;\nhttp://img856.imageshack.us/img856/3179/77511393.png&lt;/a&gt; &lt;a href=&quot;\nhttp://img39.imageshack.us/img39/9462/72341924.png&quot; rel=&quot;nofollow&quot; target=&quot;_NEW&quot;&gt;\nhttp://img39.imageshack.us/img39/9462/72341924.png&lt;/a&gt; &lt;a href=&quot;\nhttp://img40.imageshack.us/img40/4709/78501468.png&quot; rel=&quot;nofollow&quot; target=&quot;_NEW&quot;&gt;\nhttp://img40.imageshack.us/img40/4709/78501468.png&lt;/a&gt; &lt;a href=&quot;\nhttp://img10.imageshack.us/img10/2491/15110006.png&quot; rel=&quot;nofollow&quot; target=&quot;_NEW&quot;&gt;\nhttp://img10.imageshack.us/img10/2491/15110006.png&lt;/a&gt; &lt;a href=&quot;\nhttp://img152.imageshack.us/img152/4130/84386090.png&quot; rel=&quot;nofollow&quot; target=&quot;_NEW&quot;&gt;\nhttp://img152.imageshack.us/img152/4130/84386090.png&lt;/a&gt;\n\n","torrent":{"xt":"urn:btih:fd86e9170917a3e7e38e15528dd04c90cc16ee5b","amp;dn":"Dr+Strangelove%5B1964%5DBRrip%5BAc3-5.1%5D-%3D%5BCaLvIn%5D%3D-","amp;tr":["udp%3A%2F%2Ftracker.openbittorrent.com%3A80","udp%3A%2F%2Fopen.demonii.com%3A1337","udp%3A%2F%2Ftracker.coppersurfer.tk%3A6969","udp%3A%2F%2Fexodus.desync.com%3A6969"],"infoHash":"fd86e9170917a3e7e38e15528dd04c90cc16ee5b","infoHashBuffer":{"type":"Buffer","data":[253,134,233,23,9,23,163,231,227,142,21,82,141,208,76,144,204,22,238,91]},"announce":[],"urlList":[]}}